# xmcd CD database file
#
# Track frame offsets:
#	150
#	19107
#	36487
#	55102
#	70694
#	92448
#	109233
#	126486
#	143760
#	169588
#
# Disc length: 2469 seconds
#
# Revision: 0
# Processed by: cddbd v1.4PL0 Copyright (c) Steve Scherf et al.
# Submitted via: CDex 1.50beta10
#
DISCID=8509a30a
DTITLE=Papa Gombo - Blues Demo
DYEAR=1998
DGENRE=Blues
TTITLE0=Harp Shuffle
TTITLE1=Don't Burn Your Bridges
TTITLE2=Somebody Have Mercy
TTITLE3=Let Me Go For You
TTITLE4=Angel Of Mercy
TTITLE5=Cheers And Handshakes
TTITLE6=Don't Go No Further
TTITLE7=Hodoo Party
TTITLE8=Gotta Find My Babe
TTITLE9=Someday
EXTD=YEAR: 1998
EXTT0=
EXTT1=
EXTT2=
EXTT3=
EXTT4=
EXTT5=
EXTT6=
EXTT7=
EXTT8=
EXTT9=
PLAYORDER=
